<?xml version="1.0" encoding="UTF-8"?>
<svg id="Layer_2" xmlns="http://www.w3.org/2000/svg" version="1.1" viewBox="0 0 664.1 749.8">
  <!-- Generator: Adobe Illustrator 29.3.1, SVG Export Plug-In . SVG Version: 2.1.0 Build 151)  -->
  <defs>
    <style>
      .st0 {
        fill: #fff;
      }
    </style>
  </defs>
  <g id="Layer_1-2">
    <path class="st0" d="M32.9,424.6c21.9-31.5,57.8-62.7,107.5-93.6l15.4-9.5c-21.2-23.9-37.7-48.4-49.3-73.3-11.6-24.9-17.4-50.9-17.4-77.8,0-53.5,18.1-95.3,54.4-125.4C179.8,15,226.8,0,284.6,0s96.3,15.4,130.7,46.2c34.4,30.8,51.6,70.2,51.6,118.1s-10.3,78.4-31,105.4c-20.6,27-50.9,51.9-90.9,74.9l105.5,127.9c12.1-17.2,21.4-36,28-56.2s10-41.6,10.3-64.2h126c-2.3,44.6-13.1,89.7-32.3,135.3-10.6,25.6-27.8,53.9-51.6,84.9l133.2,159.1h-171.8l-51-62.2c-24.8,23-48,40-69.4,51-38.2,19.7-82.4,29.5-132.4,29.5-75.1,0-133.9-21.9-176.1-65.7C21.1,640.2,0,591.6,0,538.1s10.9-82,32.9-113.5h0ZM171.5,600.4c20.1,20.3,45.8,30.4,77.2,30.4s46-5.3,67.1-16c21.1-10.7,38.2-22.6,51.4-35.7l-137.3-167.1c-35.9,23.6-59.7,44.4-71.3,62.3s-17.4,37.7-17.4,59.3,10,46.5,30.1,66.8h0ZM234,207.3c6.2,9.6,19.6,26.8,40.3,51.4,20.6-14,35.5-25.8,44.4-35.4,17.2-17.9,25.8-37.4,25.8-58.4s-5.2-28.9-15.5-40.9c-10.3-12-26-18-47-18s-25.3,3.5-36.7,10.5c-17.2,10.3-25.8,26.6-25.8,48.9s4.8,27.3,14.5,41.9h0Z"/>
    <rect class="st0" x="487.6" y="207" width="126" height="114.6"/>
  </g>
</svg>