<?xml version="1.0" encoding="UTF-8"?><svg id="Layer_2" xmlns="http://www.w3.org/2000/svg" viewBox="0 0 664.13 749.76"><g id="Layer_1-2"><path d="M32.86,424.62c21.91-31.54,57.75-62.74,107.54-93.61l15.43-9.46c-21.24-23.93-37.67-48.35-49.29-73.28-11.62-24.92-17.42-50.85-17.42-77.77,0-53.5,18.13-95.3,54.41-125.38C179.8,15.04,226.82,0,284.6,0c52.73,0,96.31,15.4,130.74,46.19,34.43,30.8,51.64,70.17,51.64,118.11,0,43.28-10.32,78.4-30.97,105.36-20.64,26.97-50.94,51.94-90.89,74.91l105.45,127.86c12.1-17.25,21.42-36,27.97-56.24,6.55-20.24,10-41.65,10.34-64.21h125.96c-2.33,44.61-13.09,89.72-32.29,135.33-10.59,25.64-27.8,53.93-51.63,84.89l133.21,159.14h-171.76l-51.04-62.16c-24.83,23.03-47.97,40.04-69.44,51.05-38.25,19.68-82.36,29.53-132.35,29.53-75.15,0-133.86-21.91-176.13-65.72C21.14,640.22,0,591.59,0,538.14c0-44.14,10.95-81.99,32.86-113.52ZM171.53,600.37c20.09,20.27,45.84,30.41,77.25,30.41,23.64,0,46.01-5.33,67.13-16,21.11-10.66,38.24-22.56,51.42-35.69l-137.27-167.15c-35.94,23.6-59.7,44.37-71.29,62.32-11.59,17.95-17.38,37.72-17.38,59.32,0,24.26,10.04,46.53,30.15,66.8ZM234.01,207.32c6.19,9.65,19.61,26.77,40.27,51.38,20.65-13.96,35.45-25.77,44.41-35.42,17.21-17.95,25.82-37.42,25.82-58.37,0-15.29-5.16-28.93-15.5-40.9-10.33-11.97-25.99-17.96-46.98-17.96-13.09,0-25.3,3.49-36.66,10.48-17.21,10.31-25.82,26.61-25.82,48.89,0,13.3,4.81,27.27,14.46,41.91Z"/><rect x="487.59" y="206.96" width="125.96" height="114.63"/></g></svg>