<?xml version="1.0" encoding="UTF-8"?>
<svg id="Layer_1" xmlns="http://www.w3.org/2000/svg" version="1.1" viewBox="0 0 24 24">
  <!-- Generator: Adobe Illustrator 29.3.1, SVG Export Plug-In . SVG Version: 2.1.0 Build 151)  -->
  <defs>
    <style>
      .st0 {
        fill: none;
      }

      .st1 {
        fill-rule: evenodd;
      }
    </style>
  </defs>
  <rect class="st0" width="24" height="24"/>
  <path class="st1" d="M24,7.5h0v10.6c0,.5,0,1.1-.1,1.6,0,.5-.2,1-.5,1.5-.2.5-.6.9-.9,1.3-.4.4-.8.7-1.3.9-.5.2-1,.4-1.5.5-.5,0-1.1.1-1.6.1H5.9c-.5,0-1.1,0-1.6-.1-.5,0-1-.2-1.5-.5-.5-.2-.9-.6-1.3-.9-.4-.4-.7-.8-.9-1.3s-.4-1-.5-1.5C.1,19.2,0,18.6,0,18.1V7.5c0-.3,0-.6,0-.9v-.7c0-.5,0-1.1.1-1.6,0-.5.3-1,.5-1.5.2-.5.6-.9.9-1.3s.8-.7,1.3-.9S3.8.2,4.3.1C4.8.1,5.4,0,5.9,0h12.2C18.6,0,19.2,0,19.7.1c.5,0,1,.3,1.5.5s.9.6,1.3.9c.4.4.7.8.9,1.3.2.5.4,1,.5,1.5,0,.5.1,1.1.1,1.6v1.6ZM16.3,3.8h.6c.4,0,.6.1.6.5v12.2c0,.3-.2.6-.3.8-.2.2-.4.5-.7.6-.3.2-.5.2-.8.3-.6.1-.9.1-1.3,0-.3,0-.6-.2-.9-.4-.3-.3-.6-.7-.6-1.2s.1-1.1.5-1.5.4-.4.8-.5c.3-.1.7-.2,1.3-.3h.5c.2-.1.4-.2.5-.4s.1-.4.1-.6v-5.3c0-.4-.2-.5-.6-.4-.3,0-6.2,1.2-6.2,1.2-.3,0-.5.2-.5.6v8.6c0,.3-.2.6-.3.8-.2.2-.4.5-.7.6-.3.2-.5.2-.8.3-.6.1-.9.1-1.3,0-.3,0-.6-.2-.9-.4-.3-.3-.5-.7-.6-1.2,0-.5,0-1.1.5-1.5.2-.2.4-.4.8-.5.3-.1.7-.2,1.3-.3h.5c.2-.1.4-.2.5-.4s.2-.4.2-.6V5.9c0-.2.1-.3.2-.5.1,0,.3-.2.4-.2h0l7.1-1.4h.1Z"/>
</svg>