<?xml version="1.0" encoding="UTF-8"?>
<svg id="Layer_1" xmlns="http://www.w3.org/2000/svg" version="1.1" viewBox="0 0 24 24">
  <!-- Generator: Adobe Illustrator 29.3.1, SVG Export Plug-In . SVG Version: 2.1.0 Build 151)  -->
  <defs>
    <style>
      .st0 {
        fill: none;
      }

      .st1 {
        fill: #fff;
        fill-rule: evenodd;
      }
    </style>
  </defs>
  <rect class="st0" width="24" height="24"/>
  <path class="st1" d="M24,7.5h0s0,0,0,0v9c0,0,0,.1,0,.2,0,.2,0,.5,0,.7,0,.2,0,.5,0,.7,0,.5,0,1.1-.1,1.6,0,.5-.2,1-.5,1.5-.2.5-.6.9-.9,1.3-.4.4-.8.7-1.3.9-.5.2-1,.4-1.5.5-.5,0-1.1.1-1.6.1-.2,0-.5,0-.7,0-.3,0-.6,0-.9,0H7.3c-.2,0-.5,0-.7,0-.2,0-.5,0-.7,0-.5,0-1.1,0-1.6-.1-.5,0-1-.2-1.5-.5-.5-.2-.9-.6-1.3-.9-.4-.4-.7-.8-.9-1.3-.2-.5-.4-1-.5-1.5,0-.5-.1-1.1-.1-1.6,0-.2,0-.5,0-.7,0-.3,0-.6,0-.9V7.5C0,7.2,0,6.9,0,6.6c0-.2,0-.5,0-.7,0-.5,0-1.1.1-1.6,0-.5.3-1,.5-1.5.2-.5.6-.9.9-1.3s.8-.7,1.3-.9c.5-.2,1-.4,1.5-.5.5,0,1.1-.1,1.6-.1.2,0,.5,0,.7,0,.3,0,.6,0,.9,0h9c.3,0,.6,0,.9,0,.2,0,.5,0,.7,0,.5,0,1.1,0,1.6.1.5,0,1,.3,1.5.5.5.2.9.6,1.3.9.4.4.7.8.9,1.3.2.5.4,1,.5,1.5,0,.5.1,1.1.1,1.6,0,.2,0,.5,0,.7,0,.3,0,.6,0,.9ZM16.3,3.8c0,0,.6-.1.6-.1.4,0,.6.2.6.6v11.3c0,.3,0,.6,0,.9,0,.3-.2.6-.3.8-.2.2-.4.5-.7.6-.3.2-.5.2-.8.3-.6.1-.9.1-1.3,0-.3,0-.6-.2-.9-.4-.3-.3-.6-.7-.6-1.2,0-.5.1-1.1.5-1.5.2-.2.4-.4.8-.5.3-.1.7-.2,1.3-.3h.5c.2-.1.4-.2.5-.4.1-.2.1-.4.1-.6v-5.3c0-.4-.2-.5-.6-.4-.3,0-6.2,1.2-6.2,1.2-.3,0-.5.2-.5.6v7.7c0,.3,0,.6,0,.9,0,.3-.2.6-.3.8-.2.2-.4.5-.7.6-.3.2-.5.2-.8.3-.6.1-.9.1-1.3,0-.3,0-.6-.2-.9-.4-.3-.3-.5-.7-.6-1.2,0-.5.1-1.1.5-1.5.2-.2.4-.4.8-.5.3-.1.7-.2,1.3-.3h.5c.2-.1.4-.2.5-.4.1-.2.2-.4.2-.6V6.1c0-.1,0-.2,0-.2,0-.2.1-.3.2-.5.1,0,.3-.2.4-.2h0s7.1-1.4,7.1-1.4Z"/>
</svg>