<?xml version="1.0" encoding="UTF-8"?>
<svg id="Layer_1" xmlns="http://www.w3.org/2000/svg" version="1.1" viewBox="0 0 24 24">
  <!-- Generator: Adobe Illustrator 29.3.1, SVG Export Plug-In . SVG Version: 2.1.0 Build 151)  -->
  <defs>
    <style>
      .st0 {
        fill-rule: evenodd;
      }

      .st0, .st1 {
        fill: #fff;
      }
    </style>
  </defs>
  <path class="st1" d="M18.4,7c-.8,0-1.4-.6-1.4-1.4,0-.8.6-1.4,1.4-1.4.8,0,1.4.6,1.4,1.4,0,.8-.6,1.4-1.4,1.4Z"/>
  <path class="st0" d="M12,18.2c-3.4,0-6.2-2.7-6.2-6.1,0-3.4,2.7-6.2,6.1-6.2,3.4,0,6.2,2.7,6.2,6.1,0,3.4-2.7,6.2-6.2,6.2ZM12,8c-2.2,0-4,1.8-4,4,0,2.2,1.8,4,4,4,2.2,0,4-1.8,4-4,0-2.2-1.8-4-4-4Z"/>
  <path class="st0" d="M4.1.6c.8-.3,1.6-.5,2.9-.6C8.3,0,8.7,0,12,0c3.3,0,3.7,0,4.9,0,1.3,0,2.1.3,2.9.6.8.3,1.5.7,2.1,1.4.7.7,1.1,1.3,1.4,2.1.3.8.5,1.6.6,2.9,0,1.3,0,1.7,0,4.9,0,3.3,0,3.7,0,4.9,0,1.3-.3,2.1-.6,2.9-.3.8-.7,1.5-1.4,2.1-.7.7-1.3,1.1-2.1,1.4-.8.3-1.6.5-2.9.6-1.3,0-1.7,0-4.9,0-3.3,0-3.7,0-4.9,0-1.3,0-2.2-.3-2.9-.6-.8-.3-1.5-.7-2.1-1.4-.7-.7-1.1-1.3-1.4-2.1-.3-.8-.5-1.6-.6-2.9C0,15.7,0,15.3,0,12c0-3.3,0-3.7,0-4.9,0-1.3.3-2.2.6-2.9.3-.8.7-1.5,1.4-2.1.7-.7,1.3-1.1,2.1-1.4ZM4.9,21.4c.4.2,1.1.4,2.2.4,1.3,0,1.6,0,4.8,0,3.2,0,3.6,0,4.8,0,1.2,0,1.8-.3,2.2-.4.6-.2,1-.5,1.4-.9.4-.4.7-.8.9-1.4.2-.4.4-1.1.4-2.2,0-1.3,0-1.6,0-4.8,0-3.2,0-3.6,0-4.8,0-1.2-.3-1.8-.4-2.2-.2-.6-.5-1-.9-1.4-.4-.4-.8-.7-1.4-.9-.4-.2-1.1-.4-2.2-.4-1.3,0-1.6,0-4.8,0-3.2,0-3.6,0-4.8,0-1.2,0-1.8.3-2.2.4-.6.2-1,.5-1.4.9-.4.4-.7.8-.9,1.4-.2.4-.4,1.1-.4,2.2,0,1.3,0,1.6,0,4.8,0,3.2,0,3.6,0,4.8,0,1.2.3,1.8.4,2.2.2.6.5,1,.9,1.4.4.4.8.7,1.4.9Z"/>
</svg>