<?xml version="1.0" encoding="UTF-8"?><svg id="Layer_2" xmlns="http://www.w3.org/2000/svg" viewBox="0 0 909.61 226.49"><g id="Layer_1-2"><path d="M75.36,122.19c7.9-.99,13.56-2.23,16.96-3.73,6.1-2.58,9.16-6.61,9.16-12.07,0-6.65-2.34-11.25-7.02-13.78-4.68-2.53-11.56-3.8-20.62-3.8-10.17,0-17.37,2.48-21.6,7.45-3.02,3.68-5.04,8.64-6.04,14.9H5.22c.9-14.2,4.89-25.88,11.97-35.02,11.27-14.3,30.63-21.46,58.07-21.46,17.86,0,33.72,3.53,47.59,10.58,13.87,7.05,20.8,20.37,20.8,39.93v74.5c0,5.17.1,11.42.3,18.78.3,5.56,1.14,9.34,2.53,11.32,1.39,1.99,3.48,3.63,6.26,4.92v6.26h-46.19c-1.29-3.28-2.19-6.36-2.68-9.24-.5-2.88-.89-6.16-1.19-9.83-5.9,6.36-12.69,11.77-20.38,16.24-9.19,5.26-19.59,7.9-31.18,7.9-14.79,0-27-4.2-36.64-12.59-9.64-8.39-14.46-20.29-14.46-35.69,0-19.97,7.76-34.42,23.27-43.36,8.51-4.87,21.02-8.34,37.53-10.43l14.56-1.79ZM101.32,142.01c-2.72,1.69-5.46,3.05-8.23,4.1-2.77,1.04-6.57,2.01-11.4,2.91l-9.67,1.79c-9.06,1.59-15.57,3.53-19.52,5.81-6.69,3.87-10.03,9.89-10.03,18.03,0,7.25,2.04,12.49,6.13,15.72,4.08,3.23,9.05,4.84,14.9,4.84,9.28,0,17.83-2.68,25.65-8.05,7.82-5.36,11.88-15.15,12.18-29.35v-15.79Z"/><path d="M157.96,90.3v-30.25h22.65V14.75h42.02v45.3h26.37v30.25h-26.37v85.83c0,6.66.84,10.8,2.53,12.44,1.69,1.64,6.85,2.46,15.5,2.46,1.29,0,2.66-.02,4.1-.07,1.44-.05,2.85-.12,4.25-.22v31.74l-20.12.74c-20.07.69-33.78-2.78-41.13-10.43-4.77-4.87-7.15-12.37-7.15-22.5v-99.98h-22.65Z"/><path d="M313.53,220.98h-42.47V1.34h42.47v219.64Z"/><path d="M407.07,122.19c7.9-.99,13.56-2.23,16.96-3.73,6.1-2.58,9.16-6.61,9.16-12.07,0-6.65-2.34-11.25-7.02-13.78-4.68-2.53-11.56-3.8-20.62-3.8-10.17,0-17.37,2.48-21.6,7.45-3.02,3.68-5.04,8.64-6.04,14.9h-40.98c.9-14.2,4.89-25.88,11.97-35.02,11.27-14.3,30.63-21.46,58.07-21.46,17.86,0,33.72,3.53,47.59,10.58,13.87,7.05,20.8,20.37,20.8,39.93v74.5c0,5.17.1,11.42.3,18.78.3,5.56,1.14,9.34,2.53,11.32,1.39,1.99,3.48,3.63,6.26,4.92v6.26h-46.19c-1.29-3.28-2.19-6.36-2.68-9.24-.5-2.88-.89-6.16-1.19-9.83-5.9,6.36-12.69,11.77-20.38,16.24-9.19,5.26-19.59,7.9-31.18,7.9-14.79,0-27-4.2-36.64-12.59-9.64-8.39-14.46-20.29-14.46-35.69,0-19.97,7.76-34.42,23.27-43.36,8.51-4.87,21.02-8.34,37.53-10.43l14.56-1.79ZM433.04,142.01c-2.72,1.69-5.46,3.05-8.23,4.1-2.77,1.04-6.57,2.01-11.4,2.91l-9.67,1.79c-9.06,1.59-15.57,3.53-19.52,5.81-6.69,3.87-10.03,9.89-10.03,18.03,0,7.25,2.04,12.49,6.13,15.72,4.08,3.23,9.05,4.84,14.9,4.84,9.28,0,17.83-2.68,25.65-8.05,7.82-5.36,11.88-15.15,12.18-29.35v-15.79Z"/><path d="M533.19,169.12c.9,7.55,2.85,12.91,5.84,16.09,5.29,5.66,15.07,8.49,29.35,8.49,8.38,0,15.05-1.24,19.99-3.73,4.94-2.48,7.41-6.21,7.41-11.18s-1.99-8.39-5.97-10.88c-3.98-2.48-18.79-6.75-44.43-12.81-18.46-4.57-31.46-10.28-39.01-17.14-7.55-6.75-11.32-16.49-11.32-29.21,0-15,5.9-27.89,17.69-38.67,11.8-10.78,28.4-16.17,49.8-16.17s36.86,4.05,49.65,12.14c12.79,8.1,20.13,22.08,22.03,41.95h-42.47c-.6-5.46-2.14-9.78-4.63-12.96-4.68-5.76-12.65-8.64-23.91-8.64-9.26,0-15.86,1.44-19.8,4.32-3.93,2.88-5.9,6.26-5.9,10.13,0,4.87,2.09,8.4,6.28,10.58,4.18,2.29,18.96,6.21,44.34,11.77,16.92,3.97,29.6,9.98,38.04,18.03,8.34,8.15,12.52,18.33,12.52,30.55,0,16.09-6,29.23-17.99,39.41-11.99,10.18-30.53,15.27-55.61,15.27s-44.47-5.39-56.66-16.17c-12.2-10.78-18.29-24.51-18.29-41.2h43.06Z"/><path d="M664.33,129.18c6.56-9.44,17.29-18.78,32.19-28.02l4.62-2.83c-6.36-7.16-11.28-14.47-14.75-21.93-3.48-7.46-5.22-15.22-5.22-23.28,0-16.01,5.43-28.52,16.29-37.53,10.86-9,24.93-13.5,42.22-13.5,15.78,0,28.83,4.61,39.13,13.83,10.31,9.22,15.46,21,15.46,35.35,0,12.95-3.09,23.47-9.27,31.54-6.18,8.07-15.25,15.55-27.2,22.42l31.56,38.27c3.62-5.16,6.41-10.78,8.37-16.83,1.96-6.06,2.99-12.47,3.09-19.22h37.7c-.7,13.35-3.92,26.85-9.66,40.5-3.17,7.67-8.32,16.14-15.45,25.41l39.87,47.63h-51.41l-15.28-18.6c-7.43,6.89-14.36,11.99-20.78,15.28-11.45,5.89-24.65,8.84-39.61,8.84-22.49,0-40.06-6.56-52.72-19.67-12.65-13.11-18.98-27.67-18.98-43.67,0-13.21,3.28-24.54,9.83-33.98ZM705.83,181.78c6.01,6.07,13.72,9.1,23.12,9.1,7.08,0,13.77-1.59,20.09-4.79,6.32-3.19,11.45-6.75,15.39-10.68l-41.09-50.03c-10.76,7.06-17.87,13.28-21.34,18.65-3.47,5.37-5.2,11.29-5.2,17.76,0,7.26,3.01,13.93,9.02,19.99ZM724.53,64.14c1.85,2.89,5.87,8.01,12.05,15.38,6.18-4.18,10.61-7.71,13.29-10.6,5.15-5.37,7.73-11.2,7.73-17.47,0-4.58-1.55-8.66-4.64-12.24-3.09-3.58-7.78-5.38-14.06-5.38-3.92,0-7.57,1.05-10.97,3.14-5.15,3.09-7.73,7.97-7.73,14.63,0,3.98,1.44,8.16,4.33,12.54Z"/><path d="M909.61,39.19h-43.06V0h43.06v39.19ZM866.55,58.56h43.06v162.42h-43.06V58.56Z"/></g></svg>