<?xml version="1.0" encoding="UTF-8"?>
<svg id="Layer_1" xmlns="http://www.w3.org/2000/svg" version="1.1" viewBox="0 0 24 24">
  <!-- Generator: Adobe Illustrator 29.3.1, SVG Export Plug-In . SVG Version: 2.1.0 Build 151)  -->
  <defs>
    <style>
      .st0 {
        fill: none;
      }

      .st1 {
        fill: #fff;
        fill-rule: evenodd;
      }
    </style>
  </defs>
  <rect class="st0" width="24" height="24"/>
  <path class="st1" d="M22.7,4.8c.4.4.6.8.8,1.4.5,1.9.5,5.8.5,5.8,0,0,0,3.9-.5,5.8-.1.5-.4,1-.8,1.4-.4.4-.8.6-1.3.8-1.9.5-9.4.5-9.4.5,0,0-7.5,0-9.4-.5-.5-.1-1-.4-1.3-.8-.4-.4-.6-.8-.8-1.4C0,15.9,0,12,0,12c0,0,0-3.9.5-5.8.1-.5.4-1,.8-1.4.4-.4.8-.6,1.3-.8,1.9-.5,9.4-.5,9.4-.5,0,0,7.5,0,9.4.5.5.1,1,.4,1.3.8ZM15.8,12l-6.3-3.6v7.1l6.3-3.6Z"/>
</svg>